<svg id="Capa_1" enable-background="new 0 0 512 512" height="512" viewBox="0 0 512 512" width="512" xmlns="http://www.w3.org/2000/svg"><g><g fill="#ffb09e"><path d="m159.5 212c0 25.405-15.536 46-34.702 46s-30.298-23.651-30.298-49.057 11.133-42.943 30.298-42.943 34.702 20.595 34.702 46z"/><path d="m352.5 212c0 25.405 15.536 46 34.702 46s30.298-23.651 30.298-49.057-11.133-42.943-30.298-42.943-34.702 20.595-34.702 46z"/></g><path d="m394 464.502v39.998h-276v-39.998c0-22.983 15.366-43.13 37.53-49.208l59.061-16.196c6.738-1.848 11.408-7.972 11.408-14.958v-64.14h60v64.141c0 6.986 4.671 13.11 11.408 14.958l59.061 16.196c22.166 6.077 37.532 26.224 37.532 49.207z" fill="#ffcebf"/><path d="m356.47 415.294-59.061-16.196c-6.737-1.848-11.408-7.972-11.408-14.958v-64.14h-30v64.141c0 6.986 4.671 13.11 11.408 14.958l59.061 16.196c22.165 6.078 37.53 26.225 37.53 49.208v39.997h30v-39.998c0-22.983-15.366-43.13-37.53-49.208z" fill="#ffb09e"/><path d="m394 464.5v40h-276v-40c0-22.98 15.37-43.13 37.53-49.21l31.41-8.61c7.13 12.35 25.58 33.08 69.06 33.08 43.65 0 62.07-20.79 69.14-33.06l31.33 8.59c22.16 6.08 37.53 26.23 37.53 49.21z" fill="#fe7d43"/><g><path d="m356.47 415.29-31.33-8.59c-1.214 2.107-2.773 4.468-4.727 6.929l6.057 1.661c22.16 6.08 37.53 26.23 37.53 49.21v40h30v-40c0-22.98-15.37-43.13-37.53-49.21z" fill="#fd6930"/></g><path d="m144 238.211v-76.211c0-61.856 50.144-112 112-112 61.856 0 112 50.144 112 112v75.789c0 61.973-50.238 112.211-112.211 112.211-61.739 0-111.789-50.05-111.789-111.789z" fill="#ffcebf"/><path d="m256 50c-5.087 0-10.093.346-15 1.003 54.762 7.331 97 54.228 97 110.997v75.789c0 56.88-42.324 103.869-97.196 111.208 4.902.657 9.903 1.003 14.985 1.003 61.973 0 112.211-50.239 112.211-112.211v-75.789c0-61.856-50.144-112-112-112z" fill="#ffb09e"/><path d="m367.012 42.667s6.567-12.723-3.512-27.597c-10.079-14.875-85.363-6.734-170.758 14.866-85.392 21.599-65.585 122.64-65.584 122.648 1.171 18.732 5.461 25.616 9.164 33.575 3.48 7.492 7.678 27.879 7.678 27.879s23.861-19.174 23.092-26.491c-1.23-11.692-8-55.497 21.54-48.726 29.53 6.771 41.69 11.692 66.38 11.692s36.85-4.921 66.38-11.692c29.54-6.771 22.77 37.034 21.54 48.726-.77 7.317 25.068 26.557 25.068 26.557s2.222-20.453 5.702-27.945c5.506-11.836 29.524-28.566 19.328-77.402 27.612-52.438-26.018-66.09-26.018-66.09z" fill="#685e68"/><g><path d="m367.012 42.667s6.567-12.723-3.512-27.597c-4.555-6.722-22.428-8.743-48.531-6.946 9.589 1.012 16.046 3.278 18.531 6.946 5.209 7.687 5.972 14.8 5.493 19.879-.427 4.527 2.023 8.854 6.153 10.756 13.445 6.194 37.149 22.941 19.488 59.862-.995 2.081-1.332 4.418-.921 6.688 8.359 46.148-14.638 62.356-20.01 73.905-.263.567-.518 1.215-.767 1.916.414 7.668 25.064 26.028 25.064 26.028s2.222-20.453 5.702-27.945c5.506-11.836 29.524-28.566 19.328-77.402 27.612-52.438-26.018-66.09-26.018-66.09z" fill="#554e56"/></g><g><path d="m306.882 275.671c-31.721 8.569-70.043 8.569-101.765 0-3.065-.828-5.67 2.317-4.302 5.182 6.961 14.586 25.283 45.611 55.185 45.611s48.223-31.025 55.185-45.611c1.367-2.865-1.238-6.01-4.303-5.182z" fill="#f37c7c"/></g><g><g><path d="m311.18 280.851c-2.25 4.72-5.68 11.14-10.31 17.69-13.64 2.55-30 4.83-44.87 4.83s-31.23-2.28-44.87-4.83c-4.63-6.55-8.06-12.97-10.31-17.69-1.37-2.86 1.23-6.01 4.3-5.18 31.72 8.57 70.04 8.57 101.76 0 3.07-.83 5.67 2.32 4.3 5.18z" fill="#fff9df"/></g></g><g><circle cx="216" cy="218.975" r="10"/><circle cx="296" cy="218.975" r="10"/></g><g><path d="m344.924 292.764c-2.178 3.523-1.087 8.145 2.436 10.323 1.229.76 2.591 1.122 3.937 1.122 2.513 0 4.968-1.263 6.387-3.557 7.301-11.811 12.445-24.753 15.27-38.249 4.517 2.037 9.315 3.095 14.247 3.095 24.816 0 37.8-28.453 37.8-56.56 0-25.563-10.332-43.568-27.088-48.838 4.618-11.994 7.182-28.063 2.981-50.258 8.506-17.248 9.839-32.683 3.957-45.911-6.502-14.623-20.203-22.4-28.708-25.983 1.076-6.592.753-16.483-6.433-27.09-3.598-5.31-12.482-12.186-47.941-10.637-22.434.981-51.997 5.137-85.494 12.016-4.058.834-6.671 4.798-5.838 8.856s4.801 6.673 8.855 5.838c32.517-6.678 61.125-10.726 82.731-11.706 30.902-1.405 35.232 3.996 35.269 4.047 7.084 10.456 3.415 19.156 3.032 19.995-1.101 2.016-1.153 4.334-.248 6.449.912 2.13 2.822 3.624 5.064 4.21.194.051 19.455 5.24 26.04 20.177 4.151 9.416 2.541 21.244-4.785 35.156-.813 1.543-1.062 3.32-.706 5.027 7.413 35.507-4.238 51.555-12.745 63.271-2.468 3.4-4.6 6.336-6.043 9.44-1.896 4.083-3.397 10.86-4.465 16.991-6.044-5.257-10.786-10.156-11.948-12.535.048-.429.101-.891.157-1.382 1.427-12.474 4.396-38.429-8.581-50.035-3.918-3.504-10.975-7.134-22.347-4.529-7.019 1.61-13.114 3.127-18.491 4.466-17.619 4.388-28.254 7.036-46.212 7.036s-28.593-2.648-46.212-7.036c-5.377-1.339-11.472-2.856-18.492-4.466-11.369-2.605-18.428 1.024-22.347 4.529-12.977 11.606-10.007 37.561-8.58 50.035.062.544.12 1.052.172 1.52-.983 2.336-5.383 7.271-11.033 12.577-1.54-6.155-3.506-13.102-5.398-17.175-.426-.915-.859-1.816-1.294-2.723-3.207-6.671-6.235-12.972-7.184-28.156-.02-.322-.063-.649-.124-.966-.047-.242-4.62-24.472.833-50.67 7.041-33.826 26.968-55.115 59.227-63.274 3.565-.901 7.111-1.779 10.636-2.633 4.026-.975 6.499-5.029 5.523-9.055-.976-4.025-5.027-6.499-9.055-5.523-3.573.866-7.168 1.755-10.783 2.669-37.862 9.577-62.17 35.536-70.299 75.073-5.596 27.219-1.607 51.85-.901 55.774.123 1.869.283 3.611.463 5.279-20.303 2.505-33.166 21.624-33.166 50.15 0 28.107 12.984 56.56 37.8 56.56 4.898 0 9.664-1.043 14.156-3.052 4.644 22.622 15.777 43.412 32.481 60.116 13.436 13.436 29.514 23.269 47.063 29.021v32.557c0 3.597-2.424 6.775-5.893 7.727l-59.062 16.191c-25.344 6.952-43.045 30.163-43.045 56.442v40c0 4.142 3.358 7.5 7.5 7.5h56.692c4.142 0 7.5-3.358 7.5-7.5s-3.358-7.5-7.5-7.5h-49.192v-32.5c0-19.544 13.165-36.805 32.013-41.977l26.106-7.156c9.414 13.279 30.144 31.893 72.382 31.893 42.214 0 62.963-18.444 72.469-31.869l26.017 7.132c18.85 5.171 32.014 22.433 32.014 41.977v32.5h-176.116c-4.142 0-7.5 3.358-7.5 7.5s3.358 7.5 7.5 7.5h183.615c4.142 0 7.5-3.358 7.5-7.5v-40c0-26.279-17.701-49.489-43.047-56.443l-59.058-16.19c-3.471-.953-5.896-4.13-5.896-7.728v-32.745c14.542-4.826 28.137-12.424 39.95-22.503 3.151-2.688 3.526-7.422.837-10.574-2.689-3.151-7.422-3.526-10.574-.837-18.909 16.133-43.031 25.019-67.924 25.019-27.86 0-54.051-10.847-73.747-30.544-17.157-17.157-27.596-39.242-30.003-63.066-.011-.089-.016-.178-.029-.267-.339-3.439-.511-6.913-.511-10.414v-20.651c2.382-2.017 5.968-5.149 9.563-8.646 10.192-9.912 14.099-16.33 13.487-22.151-.073-.693-.165-1.497-.268-2.393-.869-7.598-3.514-30.718 3.677-37.149.694-.621 2.804-2.506 8.995-1.089 6.883 1.578 12.905 3.078 18.219 4.401 18.089 4.504 30.039 7.481 49.837 7.481s31.749-2.976 49.837-7.481c5.313-1.323 11.336-2.823 18.218-4.401 6.193-1.42 8.302.467 8.996 1.088 7.191 6.431 4.546 29.551 3.677 37.149-.103.896-.194 1.7-.268 2.393-.626 5.949 3.629 12.434 14.688 22.383 3.89 3.5 7.767 6.634 10.339 8.652v19.993c.005 19.483-5.381 38.494-15.571 54.977zm-66.424 62.552v28.823c0 10.332 6.96 19.457 16.927 22.193l17.322 4.749c-8.866 9.968-25.728 21.178-56.749 21.178-30.988 0-47.836-11.288-56.663-21.202l17.238-4.726c9.965-2.735 16.925-11.861 16.925-22.193v-28.715c7.274 1.367 14.727 2.074 22.29 2.074 7.667.002 15.27-.742 22.71-2.181zm-153.7-104.818c-14.809 0-22.8-21.413-22.8-41.56 0-16.502 5.561-34.085 20.99-35.359 1.6 5.437 3.519 9.447 5.318 13.19.408.849.814 1.694 1.211 2.547 2.443 5.259 5.725 19.526 6.98 25.494v23.398c0 2.765.1 5.515.285 8.248-3.729 2.64-7.814 4.042-11.984 4.042zm260.282-68.127c1.796-2.474 3.835-5.289 5.876-8.532 13.95 2.54 19.042 19.312 19.042 35.098 0 20.148-7.991 41.56-22.8 41.56-4.182 0-8.277-1.412-12.015-4.071.206-2.867.315-5.748.315-8.639v-23.263c.835-7.504 2.884-20.644 5.002-25.205.831-1.785 2.568-4.177 4.58-6.948z"/><path d="m256 333.962c34.43 0 54.795-34.883 61.953-49.88 1.912-4.005 1.337-8.608-1.5-12.014-2.833-3.4-7.25-4.794-11.526-3.64 0 0 0 0-.001 0-30.636 8.275-67.217 8.276-97.854 0-4.275-1.153-8.693.24-11.526 3.64-2.837 3.405-3.412 8.009-1.5 12.013 7.159 14.998 27.524 49.881 61.954 49.881zm-25.027-24.726c8.997 1.077 17.286 1.634 24.744 1.634 7.643 0 16.152-.581 25.405-1.711-7.021 5.735-15.416 9.804-25.122 9.804-9.662-.001-18.026-4.033-25.027-9.727zm69.639-24.316c-1.205 2.13-2.584 4.407-4.129 6.737-15.562 2.788-29.282 4.213-40.767 4.213-11.321 0-24.826-1.387-40.126-4.099-1.576-2.369-2.978-4.686-4.203-6.851 28.488 6.256 60.738 6.256 89.225 0z"/><path d="m256 267.349c4.001 0 8.001-.649 12.972-1.947 4.008-1.046 6.409-5.144 5.362-9.151s-5.144-6.406-9.151-5.362c-7.467 1.949-10.898 1.949-18.365 0-4.008-1.045-8.104 1.355-9.151 5.362-1.046 4.008 1.354 8.105 5.362 9.151 4.97 1.298 8.97 1.947 12.971 1.947z"/><path d="m199.712 184.122c10.522-2.747 15.661-2.747 26.184 0 .635.166 1.272.245 1.899.245 3.33 0 6.371-2.235 7.252-5.607 1.046-4.008-1.354-8.105-5.362-9.151-13.095-3.419-20.668-3.418-33.762 0-4.008 1.046-6.409 5.144-5.362 9.151 1.047 4.008 5.147 6.407 9.151 5.362z"/><path d="m321.439 178.76c1.046-4.008-1.354-8.105-5.362-9.151-13.094-3.418-20.667-3.418-33.762 0-4.008 1.046-6.409 5.144-5.362 9.151.881 3.373 3.921 5.607 7.252 5.607.627 0 1.265-.08 1.899-.245 10.524-2.748 15.662-2.747 26.184 0 4.01 1.046 8.105-1.355 9.151-5.362z"/></g></g></svg>