<svg id="Layer_1" enable-background="new 0 0 512 512" height="512" viewBox="0 0 512 512" width="512" xmlns="http://www.w3.org/2000/svg"><g><g><path d="m473.876 492.01s-13.67 5.837-32.21 9.536c-28.48 5.667-68.44 6.267-87.91-27.228v-113.778h86.46s-19.83 76.045 33.66 131.47z" fill="#823931"/><path d="m473.876 492.01s-13.67 5.837-32.21 9.536c-29.21-45.689-19.17-105.582-8.98-141.005h7.53c0-.001-19.83 76.044 33.66 131.469z" fill="#6d201b"/></g><g><path d="m44.171 492.015s13.67 5.837 32.21 9.536c28.48 5.667 68.44 6.267 87.91-27.228v-113.778h-86.46s19.83 76.045-33.66 131.47z" fill="#aa5d57"/><path d="m44.171 492.015s13.67 5.837 32.21 9.536c29.21-45.689 19.17-105.582 8.98-141.005h-7.53c0-.001 19.83 76.044-33.66 131.469z" fill="#823931"/></g><path d="m453.486 312.722h-273.22v-265.528c56.16-81.213 399.28-57.274 273.22 265.528z" fill="#823931"/><path d="m453.486 312.722h-6.55c65.19-261.51-168.01-323.602-266.67-257.762v-7.766c56.16-81.213 399.28-57.274 273.22 265.528z" fill="#6d201b"/><path d="m218.996 148.028v164.695h-154.44c-129.05-271.247 154.44-362.455 154.44-164.695z" fill="#aa5d57"/><path d="m218.996 148.028c-9.47-170.222-213.94-103.853-149.92 164.694h-4.52c-129.05-271.246 154.44-362.454 154.44-164.694z" fill="#823931"/><path d="m258.997 504.564c166.294 0 174.669-201.603 134.212-257.213-29.691-40.811-174.212-47.839-174.212-99.255 0 51.416-64.521 58.445-94.212 99.255-40.457 55.61-32.082 257.213 134.212 257.213" fill="#ffe8c8"/><path d="m258.999 504.721c-4.48 0-8.85-.15-13.11-.44 153.95-10.655 163.38-212.21 120.32-244.994-40.17-30.583-147.21-27.572-147.21-111.347 0 51.462 144.52 58.495 174.21 99.342 40.459 55.654 32.079 257.439-134.21 257.439z" fill="#fdd9b4"/><path d="m107.273 366.071c-9.425 2.156-20.128.472-29.441-5.49-17.2-11.01-23.142-32.438-13.273-47.862 8.215-12.839 24.797-17.469 40.045-12.31z" fill="#fab684"/><path d="m410.771 366.071c9.425 2.156 20.128.472 29.441-5.49 17.2-11.01 23.142-32.438 13.273-47.862-8.215-12.839-24.797-17.469-40.045-12.31z" fill="#fab684"/><path d="m260.527 414.466v21.248c0 11.046 8.954 20 20 20 11.046 0 20-8.954 20-20v-21.248z" fill="#ff4656"/></g><g><path d="m251.083 373.438c0-4.363 3.55-7.913 7.913-7.913s7.913 3.55 7.913 7.913c0 4.142 3.358 7.5 7.5 7.5s7.5-3.358 7.5-7.5c0-12.634-10.279-22.913-22.913-22.913s-22.913 10.279-22.913 22.913c0 4.142 3.358 7.5 7.5 7.5s7.5-3.357 7.5-7.5z"/><path d="m194.967 414.466c0 4.142 3.358 7.5 7.5 7.5h50.56v13.748c0 15.163 12.336 27.5 27.5 27.5s27.5-12.336 27.5-27.5v-13.748h7.5c4.142 0 7.5-3.358 7.5-7.5s-3.358-7.5-7.5-7.5h-113.06c-4.142 0-7.5 3.358-7.5 7.5zm73.06 7.5h25v13.748c0 6.892-5.607 12.5-12.5 12.5s-12.5-5.607-12.5-12.5z"/><path d="m161.214 335.04c1.464 1.464 3.384 2.197 5.303 2.197s3.839-.732 5.303-2.197l21.19-21.19 21.19 21.19c1.464 1.464 3.384 2.197 5.303 2.197s3.839-.732 5.303-2.197c2.929-2.929 2.929-7.678 0-10.606l-21.19-21.19 21.19-21.19c2.929-2.929 2.929-7.678 0-10.606-2.929-2.929-7.678-2.929-10.606 0l-21.19 21.19-21.19-21.19c-2.929-2.929-7.678-2.929-10.606 0-2.929 2.929-2.929 7.678 0 10.606l21.19 21.19-21.19 21.19c-2.929 2.928-2.929 7.677 0 10.606z"/><path d="m297.248 335.04c1.464 1.464 3.384 2.197 5.303 2.197s3.839-.732 5.303-2.197l21.19-21.19 21.19 21.19c1.464 1.464 3.384 2.197 5.303 2.197s3.839-.732 5.303-2.197c2.929-2.929 2.929-7.678 0-10.606l-21.19-21.19 21.19-21.19c2.929-2.929 2.929-7.678 0-10.606-2.929-2.929-7.678-2.929-10.606 0l-21.19 21.19-21.19-21.19c-2.929-2.929-7.678-2.929-10.606 0-2.929 2.929-2.929 7.678 0 10.606l21.19 21.19-21.19 21.19c-2.929 2.928-2.929 7.677 0 10.606z"/><path d="m455.968 452.426c-1.701-3.777-6.144-5.458-9.918-3.758-3.777 1.701-5.459 6.142-3.758 9.918 4.89 10.855 11.142 20.959 18.65 30.152-8.572 2.792-21.783 6.394-36.113 7.729-28.496 2.654-49.095-4.405-61.347-20.991 15.985-14.217 27.204-30.75 35.013-46.085 8.444-16.579 14.657-35.322 18.392-55.072.628.027 1.256.04 1.886.04 3.899 0 7.82-.51 11.652-1.508-1.613 12.928-2.591 33.384 2.257 56.176.75 3.525 3.863 5.941 7.329 5.941.517 0 1.042-.054 1.568-.166 4.051-.862 6.637-4.845 5.775-8.896-6.006-28.233-2.051-53.014-.458-60.921 8.5-6.247 14.604-14.937 17.331-24.766 2.712-9.776 1.824-19.639-2.467-28.182 18.519-48.375 27.536-92.766 26.805-131.992-.677-36.372-9.68-68.482-26.758-95.437-2.217-3.499-6.85-4.537-10.35-2.321-3.499 2.217-4.538 6.85-2.321 10.349 15.586 24.6 23.806 54.102 24.432 87.688.656 35.181-7.037 74.993-22.879 118.486-9.022-6.75-20.991-9.488-33.007-7.301-3.603-19.983-9.984-37.168-18.405-48.748-14.425-19.836-49.664-31.312-86.972-43.463-42.185-13.738-85.806-27.944-85.806-51.425 0-44.28-14.228-78.801-39.204-97.803 13.482-18.122 45.29-31.229 83.591-34.341 48.526-3.937 116.068 8.133 160.117 53.843 1.472 1.528 3.435 2.296 5.401 2.296 1.873 0 3.748-.697 5.203-2.1 2.983-2.874 3.071-7.622.196-10.604-21.016-21.808-49.237-38.604-81.612-48.571-28.863-8.887-60.166-12.279-90.52-9.814-43.795 3.557-79.293 19.01-95.174 41.386-4.793-2.35-9.878-4.23-15.238-5.611-42.667-10.994-90.218 13.484-115.63 59.522-2.002 3.626-.685 8.189 2.941 10.19 3.627 2.002 8.189.684 10.19-2.941 22.104-40.047 62.713-61.531 98.754-52.244 15.988 4.12 29.524 14.145 39.146 28.994 11.172 17.241 16.836 40.052 16.836 67.8 0 26.942-20.968 40.18-45.246 55.508-1.995 1.259-4 2.525-6.004 3.807-3.491 2.23-4.512 6.867-2.282 10.358 2.23 3.49 6.869 4.512 10.358 2.282 1.982-1.266 3.964-2.518 5.937-3.763 18.883-11.922 38.24-24.143 47.165-43.776 16.679 18.618 51.882 30.084 86.234 41.272 33.392 10.875 67.921 22.12 79.485 38.022 11.131 15.306 18.165 42.89 18.815 73.789.734 34.87-6.664 69.393-20.83 97.211-17.289 33.948-53.205 74.415-126.131 74.415-72.925 0-108.842-40.468-126.13-74.415-14.167-27.817-21.564-62.341-20.83-97.211.65-30.898 7.684-58.483 18.814-73.789 3.205-4.406 6.986-8.576 11.561-12.749 3.061-2.791 3.279-7.534.488-10.595-2.792-3.061-7.535-3.278-10.595-.488-5.333 4.864-9.776 9.773-13.585 15.01-8.42 11.578-14.8 28.76-18.404 48.739-12.3-2.224-24.546.709-33.63 7.823-35.252-79.204-31.308-135.02-21.41-168.343 1.18-3.971-1.083-8.145-5.054-9.325s-8.145 1.083-9.325 5.054c-10.914 36.744-15.257 98.616 25.237 185.634-4.159 8.473-4.994 18.216-2.314 27.875 2.727 9.83 8.832 18.52 17.334 24.767 2.708 13.418 12.204 75.598-32.38 121.82-1.712 1.775-2.442 4.278-1.953 6.695s2.135 4.439 4.403 5.408c.942.403 23.376 9.888 50.241 12.457 4.405.421 8.671.631 12.797.631 27.414 0 48.572-9.252 62.023-27.146 22.405 15.929 52.471 27.148 92.712 27.148 40.261 0 70.336-11.23 92.745-27.17 13.45 17.911 34.612 27.17 62.041 27.169 4.125 0 8.395-.21 12.797-.631 26.864-2.568 49.298-12.054 50.24-12.457 2.268-.969 3.914-2.991 4.403-5.408.49-2.417-.24-4.92-1.953-6.695-9.728-10.087-17.569-21.655-23.302-34.382zm-35.014-127.368c-.134-6.357-.528-12.605-1.166-18.678 11.022-2.22 21.889 1.728 27.38 10.305 3.609 5.637 4.534 12.571 2.604 19.526-2.012 7.252-6.843 13.629-13.603 17.954-5.21 3.334-11.134 5.117-16.954 5.198 1.388-11.278 1.982-22.779 1.739-34.305zm-352.681 11.153c-1.93-6.955-1.005-13.889 2.604-19.526 5.483-8.565 16.324-12.513 27.331-10.315-.639 6.076-1.034 12.328-1.168 18.688-.243 11.525.352 23.026 1.739 34.303-5.805-.091-11.709-1.874-16.903-5.197-6.76-4.324-11.591-10.701-13.603-17.953zm24.943 160.256c-14.335-1.335-27.549-4.939-36.121-7.731 18.518-22.729 29.337-51.112 31.448-82.784.883-13.248.107-24.749-.932-33.103 3.836 1 7.761 1.511 11.665 1.511.611 0 1.222-.013 1.832-.038 3.735 19.749 9.948 38.491 18.392 55.07 7.814 15.344 19.042 31.888 35.044 46.111-12.255 16.567-32.849 23.617-61.328 20.964z"/></g></svg>