<svg id="Capa_1" enable-background="new 0 0 512 512" height="512" viewBox="0 0 512 512" width="512" xmlns="http://www.w3.org/2000/svg"><g><circle cx="256" cy="256" fill="#afcffd" r="256"/><path d="m287.866 69.233-19.657 19.657-1.23-1.23-43.432 43.432 27.474 27.474-76.866 76.866 20.052 20.052-28.968 28.968 78.66 78.66-25.497 25.497 27.351 27.351-34.089 34.089 61.373 61.373c121.766-8.003 220.271-101.129 236.575-220.444z" fill="#8fbbfc"/><path d="m266 436.344c0 10.856 8.954 19.656 20 19.656s20-8.8 20-19.656v-60.344l-20-4.059-20 4.059z" fill="#8d4bd1"/><path d="m206 436.344c0 10.856 8.954 19.656 20 19.656s20-8.8 20-19.656v-60.344l-20-4.059-20 4.059z" fill="#b473ec"/><path d="m206 296v80h40v-67.42h9.765l3.117-6.521-3.117-10.588z" fill="#bde55c"/><path d="m266 376h40v-80l-50.235-4.529v17.109h10.235z" fill="#a6d344"/><path d="m161 274.182c0 8.142 6.716 14.742 15 14.742s15-6.6 15-14.742l13.156-58.182-12.567-4.294-17.433 4.294z" fill="#fddd39"/><path d="m321 274.182c0 8.142 6.716 14.742 15 14.742s15-6.6 15-14.742l-13.156-58.182-15.433-4.294-14.567 4.294z" fill="#f7bd2b"/><path d="m255.765 209.181-49.765 6.819v80h49.765l6.882-43.538z" fill="#fddd39"/><path d="m255.765 296h50.235v-80l-50.235-6.819z" fill="#f7bd2b"/><path d="m255.765 131.78-26.446 4.22c3.147 2.249 6.601 4.108 10.29 5.504h-11.111c-21.909 0-40.879 14.955-45.632 35.975l-8.71 38.521h30l1.844-8.157v8.157h49.765l6.882-40z" fill="#f99d4b"/><path d="m255.765 216h50.235v-8.157l1.844 8.157h30l-8.71-38.521c-4.753-21.02-23.723-35.975-45.632-35.975h-11.581c3.688-1.396 7.143-3.254 10.29-5.504l-26.446-4.22z" fill="#fb8533"/><path d="m255.765 56c-24.853 0-45 19.801-45 44.226 0 14.71 7.311 27.736 18.554 35.774h26.446l6.882-37.235z" fill="#fb72a4"/><path d="m282.21 136c11.243-8.038 18.554-21.064 18.554-35.774 0-24.425-20.147-44.226-45-44.226v80z" fill="#fb448b"/></g></svg>