<svg id="Capa_1" enable-background="new 0 0 512 512" height="512" viewBox="0 0 512 512" width="512" xmlns="http://www.w3.org/2000/svg"><g><path d="m433.163 409.473c-.71-4.081-4.596-6.811-8.676-6.102-4.081.711-6.812 4.595-6.102 8.676l11.839 67.964c.736 4.228-.425 8.537-3.188 11.821-2.761 3.284-6.807 5.168-11.098 5.168h-38.529l-5.243-25.358c-.839-4.056-4.809-6.668-8.863-5.826-4.056.839-6.665 4.807-5.826 8.863l4.616 22.321h-249.66l4.615-22.321c.838-4.056-1.77-8.024-5.826-8.863-4.056-.841-8.024 1.77-8.863 5.826l-5.244 25.358h-38.528c-4.292 0-8.336-1.884-11.098-5.168-2.762-3.285-3.923-7.593-3.187-11.82l20.091-115.34c2.764-15.863 14.749-28.166 30.535-31.343l101.255-20.376 21.31 16.643c11.642 9.091 27.902 9.091 39.542 0l21.31-16.643 101.255 20.376c15.786 3.177 27.771 15.479 30.535 31.343l2.708 15.545c.71 4.08 4.59 6.811 8.676 6.102 4.081-.711 6.812-4.595 6.102-8.676l-2.708-15.545c-3.833-22.003-20.458-39.068-42.353-43.474l-98.614-19.845v-37.248c3.039-2.588 5.885-5.44 8.497-8.549l19.752-23.507c.829-.986 1.645-2.003 2.425-3.023 2.517-3.29 1.891-7.997-1.399-10.514-3.289-2.517-7.997-1.891-10.514 1.399-.641.838-1.312 1.675-1.996 2.488l-19.753 23.508c-10.87 12.937-26.796 20.356-43.694 20.356-16.897 0-32.823-7.419-43.693-20.356l-19.753-23.508c-10.592-12.605-16.425-28.615-16.425-45.081v-64.5c0-30.607 24.901-55.508 55.508-55.508h48.729c2.288 0 4.59.14 6.842.417 4.12.509 7.854-2.419 8.358-6.53.505-4.111-2.419-7.854-6.53-8.358-2.857-.351-5.774-.528-8.67-.528h-48.729c-38.878 0-70.508 31.63-70.508 70.508v12.751h-3.353c-14.612 0-26.5 11.888-26.5 26.5v9.008c0 14.612 11.888 26.5 26.5 26.5h3.992c1.987 16.301 8.658 31.803 19.303 44.471l19.753 23.508c2.612 3.109 5.458 5.961 8.497 8.549v37.248l-98.614 19.845c-21.896 4.406-38.52 21.47-42.353 43.474l-20.091 115.34c-1.499 8.601.865 17.366 6.483 24.048 5.616 6.68 13.846 10.513 22.577 10.513h357.353c8.73 0 16.96-3.832 22.579-10.514s7.982-15.447 6.484-24.049zm-305.625-250.969v-9.008c0-6.341 5.159-11.5 11.5-11.5h3.353v32.008h-3.353c-6.342 0-11.5-5.159-11.5-11.5zm109.725 120.185c11.143 0 21.941-2.577 31.681-7.345v29.917l-21.143 16.512c-6.205 4.845-14.872 4.846-21.077 0l-21.143-16.512v-29.917c9.741 4.768 20.539 7.345 31.682 7.345z"/><path d="m237.263 211.492c-4.188 0-7.583 3.395-7.583 7.583s3.395 7.583 7.583 7.583 7.583-3.395 7.583-7.583-3.395-7.583-7.583-7.583z"/><path d="m246.841 161.861c18.584-4.65 31.076-21.932 29.703-41.091-1.352-18.853-16.536-34.461-35.319-36.307-21.165-2.082-40.04 12.725-42.967 33.704-.252 1.804-.38 3.649-.38 5.485 0 4.142 3.358 7.5 7.5 7.5s7.5-3.358 7.5-7.5c0-1.144.079-2.292.236-3.411 1.812-12.983 13.512-22.139 26.644-20.851 11.606 1.141 20.989 10.793 21.824 22.452.852 11.878-6.879 22.589-18.383 25.468-7.911 1.98-13.437 8.979-13.437 17.02v24.548c0 4.142 3.358 7.5 7.5 7.5s7.5-3.358 7.5-7.5v-24.548c.001-1.165.836-2.158 2.079-2.469z"/><path d="m475.417 54.736c4.142 0 7.5-3.358 7.5-7.5v-18.997c0-15.571-12.668-28.239-28.24-28.239h-133.266c-15.571 0-28.24 12.668-28.24 28.239v106.769c0 19.989 7.082 39.426 19.942 54.73l19.753 23.507c13.728 16.337 33.839 25.707 55.178 25.707s41.451-9.37 55.178-25.707l19.753-23.507c12.859-15.304 19.941-34.741 19.941-54.73v-58.732c0-4.142-3.358-7.5-7.5-7.5s-7.5 3.358-7.5 7.5v58.731c0 16.465-5.833 32.475-16.426 45.081l-19.753 23.507c-10.87 12.937-26.796 20.356-43.694 20.356-16.897 0-32.823-7.419-43.693-20.356l-19.753-23.507c-10.593-12.606-16.426-28.616-16.426-45.081v-106.768c0-7.3 5.939-13.239 13.24-13.239h133.266c7.3 0 13.239 5.939 13.239 13.239v18.997c.001 4.142 3.359 7.5 7.501 7.5z"/><path d="m388.044 196.378c15.116 0 27.414-12.297 27.414-27.413s-12.298-27.414-27.414-27.414-27.413 12.298-27.413 27.414 12.297 27.413 27.413 27.413zm0-39.827c6.845 0 12.414 5.569 12.414 12.414s-5.569 12.413-12.414 12.413-12.413-5.568-12.413-12.413 5.568-12.414 12.413-12.414z"/><path d="m381.139 85.25c0-15.116-12.298-27.414-27.414-27.414s-27.413 12.298-27.413 27.414 12.297 27.414 27.413 27.414 27.414-12.299 27.414-27.414zm-27.413 12.413c-6.845 0-12.413-5.569-12.413-12.414s5.568-12.414 12.413-12.414 12.414 5.569 12.414 12.414-5.57 12.414-12.414 12.414z"/><path d="m449.776 85.25c0-15.116-12.297-27.414-27.413-27.414s-27.414 12.298-27.414 27.414 12.298 27.414 27.414 27.414 27.413-12.299 27.413-27.414zm-39.827 0c0-6.845 5.569-12.414 12.414-12.414s12.413 5.569 12.413 12.414-5.568 12.414-12.413 12.414-12.414-5.57-12.414-12.414z"/></g></svg>